<svg width="165" height="100" viewBox="0 0 165 100" fill="none" xmlns="http://www.w3.org/2000/svg">
<path d="M36.3065 87.1335H36.8845V88.5105C36.8845 88.9355 36.8307 89.352 36.723 89.76C36.621 90.168 36.4737 90.5505 36.281 90.9075C36.0884 91.2645 35.8617 91.5818 35.601 91.8595C35.3404 92.1372 35.057 92.3582 34.751 92.5225L34.3175 91.953C34.6009 91.8113 34.8615 91.6215 35.0995 91.3835C35.3432 91.1398 35.5557 90.8622 35.737 90.5505C35.9184 90.2388 36.0572 89.9102 36.1535 89.5645C36.2555 89.2132 36.3065 88.8618 36.3065 88.5105V87.1335ZM36.434 87.1335H37.0035V88.5105C37.0035 88.8505 37.0517 89.1877 37.148 89.522C37.25 89.8563 37.3917 90.1708 37.573 90.4655C37.7544 90.7602 37.9612 91.0237 38.1935 91.256C38.4315 91.4883 38.6865 91.6725 38.9585 91.8085L38.525 92.3695C38.2247 92.2165 37.947 92.0068 37.692 91.7405C37.4427 91.4742 37.2217 91.171 37.029 90.831C36.842 90.4853 36.6947 90.117 36.587 89.726C36.485 89.3293 36.434 88.9242 36.434 88.5105V87.1335ZM39.63 86.4705H40.3355V94.163H39.63V86.4705ZM40.174 89.5815H41.5935V90.185H40.174V89.5815ZM47.2939 86.479H47.9994V91.0605H47.2939V86.479ZM47.7784 88.4425H49.1384V89.0375H47.7784V88.4425ZM43.1544 91.4345H47.9994V94.061H43.1544V91.4345ZM47.3109 91.9955H43.8429V93.483H47.3109V91.9955ZM42.3639 90.0745H42.9674C43.4321 90.0745 43.8599 90.0688 44.2509 90.0575C44.6476 90.0462 45.0301 90.0235 45.3984 89.9895C45.7724 89.9555 46.1577 89.9045 46.5544 89.8365L46.6224 90.406C46.2144 90.474 45.8206 90.5278 45.4409 90.5675C45.0669 90.6015 44.6787 90.627 44.2764 90.644C43.8797 90.6553 43.4434 90.661 42.9674 90.661H42.3639V90.0745ZM42.3469 86.887H45.8064V89.0035H43.0609V90.406H42.3639V88.4595H45.1179V87.465H42.3469V86.887ZM49.6367 89.6835H56.5897V90.253H49.6367V89.6835ZM50.5632 88.4935H55.7567V89.063H50.5632V88.4935ZM50.5632 86.7255H55.6802V87.295H51.2602V88.944H50.5632V86.7255ZM50.4782 90.9245H55.6887V92.7265H51.1837V93.6955H50.4952V92.1995H55.0002V91.477H50.4782V90.9245ZM50.4952 93.5085H55.9182V94.0695H50.4952V93.5085ZM57.5896 87.312H61.0576V87.89H57.5896V87.312ZM58.7881 89.5135H59.4851V92.1145H58.7881V89.5135ZM60.7686 87.312H61.4656V87.7285C61.4656 88.0402 61.4542 88.4482 61.4316 88.9525C61.4146 89.4568 61.3522 90.066 61.2446 90.78L60.5476 90.7205C60.6609 90.0235 60.7261 89.4285 60.7431 88.9355C60.7601 88.4425 60.7686 88.0402 60.7686 87.7285V87.312ZM62.4261 86.4705H63.1316V94.163H62.4261V86.4705ZM62.9361 89.6835H64.3556V90.287H62.9361V89.6835ZM57.2496 92.48L57.1646 91.8935C57.6236 91.8878 58.1251 91.8822 58.6691 91.8765C59.2187 91.8652 59.7741 91.8425 60.3351 91.8085C60.9017 91.7745 61.4429 91.7263 61.9586 91.664L62.0011 92.191C61.4684 92.276 60.9216 92.3383 60.3606 92.378C59.8052 92.4177 59.2612 92.446 58.7286 92.463C58.1959 92.4743 57.7029 92.48 57.2496 92.48ZM67.0125 91.0265H73.9825V91.596H67.0125V91.0265ZM70.132 91.29H70.829V94.163H70.132V91.29ZM67.8965 86.785H68.5935V87.839H72.393V86.785H73.0985V90.1085H67.8965V86.785ZM68.5935 88.4085V89.5305H72.393V88.4085H68.5935ZM75.0929 89.777H75.7219C76.2772 89.777 76.7645 89.7713 77.1839 89.76C77.6089 89.743 77.9999 89.7147 78.3569 89.675C78.7195 89.6353 79.085 89.5787 79.4534 89.505L79.5299 90.083C79.1502 90.1567 78.7762 90.2133 78.4079 90.253C78.0395 90.2927 77.64 90.321 77.2094 90.338C76.7844 90.355 76.2885 90.3635 75.7219 90.3635H75.0929V89.777ZM75.0929 87.0145H78.7054V87.584H75.7899V90.117H75.0929V87.0145ZM80.2184 86.4705H80.9239V90.865H80.2184V86.4705ZM75.9684 91.256H80.9834V91.834H76.6654V93.823H75.9684V91.256ZM75.9684 93.4745H81.1364V94.0525H75.9684V93.4745ZM87.8142 86.4705H88.5197V94.163H87.8142V86.4705ZM82.3997 87.7115H87.0067V88.2895H82.3997V87.7115ZM84.7202 88.91C85.0829 88.91 85.4059 88.9865 85.6892 89.1395C85.9782 89.2925 86.2049 89.5022 86.3692 89.7685C86.5335 90.0292 86.6157 90.3323 86.6157 90.678C86.6157 91.0237 86.5335 91.3297 86.3692 91.596C86.2049 91.8623 85.9782 92.072 85.6892 92.225C85.4059 92.3723 85.0829 92.446 84.7202 92.446C84.3519 92.446 84.0232 92.3723 83.7342 92.225C83.4509 92.072 83.227 91.8623 83.0627 91.596C82.8984 91.3297 82.8162 91.0237 82.8162 90.678C82.8162 90.3323 82.8984 90.0292 83.0627 89.7685C83.227 89.5022 83.4509 89.2925 83.7342 89.1395C84.0232 88.9865 84.3519 88.91 84.7202 88.91ZM84.7202 89.4965C84.4879 89.4965 84.2782 89.5475 84.0912 89.6495C83.9042 89.7515 83.7569 89.8903 83.6492 90.066C83.5415 90.2417 83.4877 90.4457 83.4877 90.678C83.4877 90.9103 83.5415 91.1172 83.6492 91.2985C83.7569 91.4742 83.9042 91.613 84.0912 91.715C84.2782 91.8113 84.4879 91.8595 84.7202 91.8595C84.9582 91.8595 85.1679 91.8113 85.3492 91.715C85.5362 91.613 85.6807 91.4742 85.7827 91.2985C85.8904 91.1172 85.9442 90.9103 85.9442 90.678C85.9442 90.4457 85.8904 90.2417 85.7827 90.066C85.6807 89.8903 85.5362 89.7515 85.3492 89.6495C85.1679 89.5475 84.9582 89.4965 84.7202 89.4965ZM84.3462 86.547H85.0602V88.0685H84.3462V86.547ZM91.8655 87.5755H92.4435V88.8165C92.4435 89.2245 92.3869 89.6268 92.2735 90.0235C92.1602 90.4145 92.0015 90.7857 91.7975 91.137C91.5992 91.4827 91.3669 91.7887 91.1005 92.055C90.8342 92.3213 90.548 92.531 90.242 92.684L89.834 92.123C90.1117 91.987 90.3724 91.8028 90.616 91.5705C90.8654 91.3382 91.0835 91.0718 91.2705 90.7715C91.4575 90.4712 91.602 90.1538 91.704 89.8195C91.8117 89.4852 91.8655 89.1508 91.8655 88.8165V87.5755ZM92.01 87.5755H92.5795V88.8165C92.5795 89.1395 92.6305 89.4625 92.7325 89.7855C92.8402 90.1028 92.9875 90.4032 93.1745 90.6865C93.3672 90.9642 93.5854 91.2107 93.829 91.426C94.0784 91.6413 94.3447 91.8113 94.628 91.936L94.237 92.497C93.9254 92.3497 93.6335 92.1513 93.3615 91.902C93.0895 91.6527 92.8515 91.3665 92.6475 91.0435C92.4492 90.7148 92.2934 90.3635 92.18 89.9895C92.0667 89.6098 92.01 89.2188 92.01 88.8165V87.5755ZM90.0805 87.261H94.373V87.8475H90.0805V87.261ZM95.4185 86.4705H96.124V94.163H95.4185V86.4705ZM101.739 86.904C102.119 86.904 102.459 86.9805 102.759 87.1335C103.059 87.2865 103.294 87.4962 103.464 87.7625C103.634 88.0288 103.719 88.3348 103.719 88.6805C103.719 89.0262 103.634 89.335 103.464 89.607C103.294 89.8733 103.059 90.083 102.759 90.236C102.459 90.3833 102.119 90.457 101.739 90.457C101.359 90.457 101.019 90.3833 100.719 90.236C100.419 90.083 100.181 89.8733 100.005 89.607C99.835 89.335 99.75 89.0262 99.75 88.6805C99.75 88.3348 99.835 88.0288 100.005 87.7625C100.181 87.4962 100.419 87.2865 100.719 87.1335C101.019 86.9805 101.359 86.904 101.739 86.904ZM101.739 87.4905C101.495 87.4905 101.274 87.5415 101.076 87.6435C100.878 87.7455 100.722 87.8872 100.608 88.0685C100.495 88.2442 100.438 88.4482 100.438 88.6805C100.438 88.9128 100.495 89.1197 100.608 89.301C100.722 89.4823 100.878 89.624 101.076 89.726C101.274 89.828 101.495 89.879 101.739 89.879C101.988 89.879 102.209 89.828 102.402 89.726C102.6 89.624 102.756 89.4823 102.869 89.301C102.983 89.1197 103.039 88.9128 103.039 88.6805C103.039 88.4482 102.983 88.2442 102.869 88.0685C102.756 87.8872 102.6 87.7455 102.402 87.6435C102.209 87.5415 101.988 87.4905 101.739 87.4905ZM104.875 86.4705H105.581V90.304H104.875V86.4705ZM105.275 88.196H106.711V88.7825H105.275V88.196ZM100.413 93.381H100.787C100.94 93.381 101.118 93.3753 101.322 93.364C101.526 93.347 101.742 93.3215 101.968 93.2875C102.195 93.2478 102.419 93.1912 102.64 93.1175L102.75 93.6785C102.507 93.7578 102.266 93.8173 102.028 93.857C101.796 93.8967 101.575 93.9222 101.365 93.9335C101.155 93.9505 100.963 93.959 100.787 93.959H100.413V93.381ZM100.413 91.137H101.101V93.585H100.413V91.137ZM102.478 91.1795H106.329V91.715H102.478V91.1795ZM104.408 91.9785C104.827 91.9785 105.167 92.0777 105.428 92.276C105.694 92.4687 105.827 92.7322 105.827 93.0665C105.827 93.4008 105.694 93.6643 105.428 93.857C105.167 94.0497 104.827 94.146 104.408 94.146C103.989 94.146 103.646 94.0497 103.379 93.857C103.113 93.6643 102.98 93.4008 102.98 93.0665C102.98 92.7322 103.113 92.4687 103.379 92.276C103.646 92.0777 103.989 91.9785 104.408 91.9785ZM104.408 92.4885C104.176 92.4885 103.983 92.5423 103.83 92.65C103.683 92.752 103.609 92.8908 103.609 93.0665C103.609 93.2422 103.683 93.3838 103.83 93.4915C103.983 93.5935 104.176 93.6445 104.408 93.6445C104.64 93.6445 104.83 93.5935 104.977 93.4915C105.125 93.3838 105.198 93.2422 105.198 93.0665C105.198 92.8908 105.125 92.752 104.977 92.65C104.83 92.5423 104.64 92.4885 104.408 92.4885ZM104.068 90.4995H104.756V91.596H104.068V90.4995ZM110.686 86.6065C111.536 86.6065 112.199 86.7227 112.675 86.955C113.151 87.1817 113.389 87.5075 113.389 87.9325C113.389 88.3632 113.151 88.6947 112.675 88.927C112.199 89.1537 111.536 89.267 110.686 89.267C109.842 89.267 109.179 89.1537 108.697 88.927C108.221 88.6947 107.983 88.3632 107.983 87.9325C107.983 87.5075 108.221 87.1817 108.697 86.955C109.179 86.7227 109.842 86.6065 110.686 86.6065ZM110.686 87.1335C110.273 87.1335 109.918 87.1647 109.624 87.227C109.329 87.2893 109.102 87.38 108.944 87.499C108.791 87.618 108.714 87.7625 108.714 87.9325C108.714 88.1025 108.791 88.2498 108.944 88.3745C109.102 88.4935 109.329 88.5842 109.624 88.6465C109.918 88.7032 110.273 88.7315 110.686 88.7315C111.106 88.7315 111.463 88.7032 111.757 88.6465C112.052 88.5842 112.276 88.4935 112.429 88.3745C112.587 88.2498 112.667 88.1025 112.667 87.9325C112.667 87.7625 112.587 87.618 112.429 87.499C112.276 87.38 112.052 87.2893 111.757 87.227C111.463 87.1647 111.106 87.1335 110.686 87.1335ZM107.218 89.7855H114.163V90.355H107.218V89.7855ZM108.06 91.0095H113.27V92.7435H108.765V93.67H108.077V92.225H112.582V91.5535H108.06V91.0095ZM108.077 93.5255H113.5V94.078H108.077V93.5255ZM121.104 88.468H122.829V89.0545H121.104V88.468ZM122.617 86.4705H123.322V91.052H122.617V86.4705ZM120.789 91.29C121.322 91.29 121.778 91.3467 122.158 91.46C122.543 91.5733 122.838 91.7377 123.042 91.953C123.246 92.1627 123.348 92.4205 123.348 92.7265C123.348 93.1798 123.118 93.5312 122.659 93.7805C122.206 94.0298 121.583 94.1545 120.789 94.1545C119.996 94.1545 119.37 94.0298 118.911 93.7805C118.457 93.5312 118.231 93.1798 118.231 92.7265C118.231 92.4205 118.333 92.1627 118.537 91.953C118.746 91.7377 119.041 91.5733 119.421 91.46C119.806 91.3467 120.262 91.29 120.789 91.29ZM120.789 91.8425C120.404 91.8425 120.072 91.8765 119.795 91.9445C119.517 92.0125 119.302 92.1117 119.149 92.242C119.001 92.3723 118.928 92.5338 118.928 92.7265C118.928 92.9078 119.001 93.0637 119.149 93.194C119.302 93.3243 119.517 93.4263 119.795 93.5C120.072 93.568 120.404 93.602 120.789 93.602C121.18 93.602 121.512 93.568 121.784 93.5C122.061 93.4263 122.274 93.3243 122.421 93.194C122.574 93.0637 122.651 92.9078 122.651 92.7265C122.651 92.5338 122.574 92.3723 122.421 92.242C122.274 92.1117 122.061 92.0125 121.784 91.9445C121.512 91.8765 121.18 91.8425 120.789 91.8425ZM118.953 87.2525H119.531V87.873C119.531 88.3433 119.441 88.7853 119.259 89.199C119.084 89.607 118.834 89.9668 118.511 90.2785C118.188 90.5845 117.814 90.8197 117.389 90.984L117.024 90.423C117.313 90.321 117.573 90.1822 117.806 90.0065C118.044 89.8308 118.248 89.6297 118.418 89.403C118.593 89.1763 118.727 88.9327 118.817 88.672C118.908 88.4113 118.953 88.145 118.953 87.873V87.2525ZM119.089 87.2525H119.667V87.8645C119.667 88.1932 119.744 88.5133 119.897 88.825C120.05 89.1367 120.268 89.4115 120.551 89.6495C120.835 89.8875 121.16 90.0745 121.529 90.2105L121.172 90.7715C120.752 90.6185 120.387 90.3975 120.075 90.1085C119.764 89.8138 119.52 89.4738 119.344 89.0885C119.174 88.7032 119.089 88.2952 119.089 87.8645V87.2525ZM117.245 87.0315H121.35V87.6095H117.245V87.0315ZM125.487 90.066H130.765V90.6355H125.487V90.066ZM124.603 92.6075H131.573V93.194H124.603V92.6075ZM127.722 90.3125H128.419V92.837H127.722V90.3125ZM125.487 87.0825H130.689V87.669H126.192V90.321H125.487V87.0825Z" fill="black"/>
<circle cx="83" cy="46" r="6.70822" fill="#FFDC00"/>
<circle cx="103.125" cy="46" r="6.70822" fill="#D9D9D9"/>
<circle cx="91.8045" cy="59.4165" r="6.70822" fill="#D9D9D9"/>
<circle cx="73.881" cy="32.3852" r="6.70822" fill="#D9D9D9"/>
<circle cx="91.9093" cy="32.3852" r="6.70822" fill="#D9D9D9"/>
<circle cx="73.7762" cy="59.4165" r="6.70822" fill="#D9D9D9"/>
<circle cx="62.8753" cy="46" r="6.70822" fill="#D9D9D9"/>
<path d="M63.4952 12.513H64.9472V14.834H63.4952V12.513ZM64.2212 7.31C64.9472 7.31 65.5962 7.42733 66.1682 7.662C66.7476 7.88933 67.2022 8.212 67.5322 8.63C67.8622 9.048 68.0272 9.543 68.0272 10.115C68.0272 10.6797 67.8622 11.1747 67.5322 11.6C67.2022 12.0253 66.7476 12.3553 66.1682 12.59C65.5962 12.8173 64.9472 12.931 64.2212 12.931C63.5026 12.931 62.8536 12.8173 62.2742 12.59C61.7022 12.3553 61.2476 12.0253 60.9102 11.6C60.5802 11.1747 60.4152 10.6797 60.4152 10.115C60.4152 9.543 60.5802 9.048 60.9102 8.63C61.2476 8.212 61.7022 7.88933 62.2742 7.662C62.8536 7.42733 63.5026 7.31 64.2212 7.31ZM64.2212 8.465C63.7592 8.465 63.3486 8.531 62.9892 8.663C62.6372 8.795 62.3586 8.982 62.1532 9.224C61.9552 9.466 61.8562 9.763 61.8562 10.115C61.8562 10.4597 61.9552 10.7567 62.1532 11.006C62.3586 11.248 62.6372 11.435 62.9892 11.567C63.3486 11.699 63.7592 11.765 64.2212 11.765C64.6906 11.765 65.1012 11.699 65.4532 11.567C65.8126 11.435 66.0912 11.248 66.2892 11.006C66.4872 10.7567 66.5862 10.4597 66.5862 10.115C66.5862 9.763 66.4872 9.466 66.2892 9.224C66.0912 8.982 65.8126 8.795 65.4532 8.663C65.1012 8.531 64.6906 8.465 64.2212 8.465ZM59.6232 14.603H68.8522V15.791H59.6232V14.603ZM70.0414 7.849H78.3464V8.993H70.0414V7.849ZM69.6124 13.382H78.8414V14.548H69.6124V13.382ZM73.4844 14.416H74.9364V16.979H73.4844V14.416ZM74.2214 9.389C75.314 9.389 76.1684 9.53933 76.7844 9.84C77.4004 10.1407 77.7084 10.5733 77.7084 11.138C77.7084 11.7027 77.4004 12.139 76.7844 12.447C76.1684 12.7477 75.3104 12.898 74.2104 12.898C73.1177 12.898 72.2634 12.7477 71.6474 12.447C71.0314 12.139 70.7234 11.7027 70.7234 11.138C70.7234 10.5733 71.0314 10.1407 71.6474 9.84C72.2634 9.53933 73.1214 9.389 74.2214 9.389ZM74.2104 10.478C73.5504 10.478 73.0554 10.5293 72.7254 10.632C72.4027 10.7347 72.2414 10.9033 72.2414 11.138C72.2414 11.3653 72.4027 11.534 72.7254 11.644C73.0554 11.754 73.5504 11.809 74.2104 11.809C74.8777 11.809 75.3727 11.754 75.6954 11.644C76.0254 11.534 76.1904 11.3653 76.1904 11.138C76.1904 10.9033 76.0254 10.7347 75.6954 10.632C75.3727 10.5293 74.8777 10.478 74.2104 10.478ZM73.4844 6.782H74.9364V8.608H73.4844V6.782ZM86.2339 16V14.5767H82.4365V13.3037C82.6335 12.9528 82.8322 12.6055 83.0327 12.2617C83.2332 11.9144 83.4355 11.5706 83.6396 11.2305C83.8473 10.8867 84.0532 10.5483 84.2573 10.2153C84.465 9.87874 84.6727 9.54753 84.8804 9.22168C85.0881 8.89225 85.2957 8.5682 85.5034 8.24951H87.7808V13.2769H88.7905V14.5767H87.7808V16H86.2339ZM83.8975 13.3198H86.2661V9.47949H86.1802C86.0298 9.71224 85.8758 9.95036 85.7183 10.1938C85.5643 10.4373 85.4085 10.6862 85.251 10.9404C85.097 11.1947 84.9412 11.4507 84.7837 11.7085C84.6297 11.9627 84.4775 12.2188 84.3271 12.4766C84.1803 12.7308 84.0371 12.9832 83.8975 13.2339V13.3198ZM91.2011 14.9956C90.9289 14.9956 90.7033 14.9061 90.5243 14.7271C90.3453 14.548 90.2557 14.326 90.2557 14.061C90.2557 13.7961 90.3453 13.5758 90.5243 13.4004C90.7033 13.2214 90.9289 13.1318 91.2011 13.1318C91.4804 13.1318 91.7077 13.2214 91.8832 13.4004C92.0586 13.5758 92.1464 13.7961 92.1464 14.061C92.1464 14.326 92.0586 14.548 91.8832 14.7271C91.7077 14.9061 91.4804 14.9956 91.2011 14.9956ZM91.2011 11.1069C90.9289 11.1069 90.7033 11.0174 90.5243 10.8384C90.3453 10.6593 90.2557 10.4373 90.2557 10.1724C90.2557 9.90739 90.3453 9.68717 90.5243 9.51172C90.7033 9.33268 90.9289 9.24316 91.2011 9.24316C91.4804 9.24316 91.7077 9.33268 91.8832 9.51172C92.0586 9.68717 92.1464 9.90739 92.1464 10.1724C92.1464 10.4373 92.0586 10.6593 91.8832 10.8384C91.7077 11.0174 91.4804 11.1069 91.2011 11.1069ZM96.6624 16.1987C96.025 16.1987 95.4753 16.034 95.0134 15.7046C94.5551 15.3716 94.2024 14.9007 93.9553 14.292C93.7083 13.6833 93.5847 12.9618 93.5847 12.1274V12.1167C93.5847 11.2788 93.7083 10.5573 93.9553 9.95215C94.2024 9.34342 94.5551 8.87435 95.0134 8.54492C95.4753 8.21549 96.025 8.05078 96.6624 8.05078C97.3033 8.05078 97.853 8.21549 98.3113 8.54492C98.7696 8.87435 99.1223 9.34342 99.3694 9.95215C99.6165 10.5573 99.74 11.2788 99.74 12.1167V12.1274C99.74 12.9618 99.6165 13.6833 99.3694 14.292C99.1223 14.9007 98.7696 15.3716 98.3113 15.7046C97.853 16.034 97.3033 16.1987 96.6624 16.1987ZM96.6624 14.915C96.9703 14.915 97.2299 14.804 97.4412 14.582C97.656 14.36 97.8189 14.0413 97.9299 13.626C98.0445 13.2106 98.1018 12.7111 98.1018 12.1274V12.1167C98.1018 11.5295 98.0445 11.0299 97.9299 10.6182C97.8189 10.2028 97.656 9.8859 97.4412 9.66748C97.2299 9.44548 96.9703 9.33447 96.6624 9.33447C96.358 9.33447 96.0984 9.44548 95.8836 9.66748C95.6723 9.8859 95.5094 10.2028 95.3948 10.6182C95.2838 11.0299 95.2283 11.5295 95.2283 12.1167V12.1274C95.2283 12.7111 95.2838 13.2106 95.3948 13.626C95.5094 14.0413 95.6723 14.36 95.8836 14.582C96.0984 14.804 96.358 14.915 96.6624 14.915ZM104.063 16.1987C103.425 16.1987 102.876 16.034 102.414 15.7046C101.955 15.3716 101.603 14.9007 101.356 14.292C101.109 13.6833 100.985 12.9618 100.985 12.1274V12.1167C100.985 11.2788 101.109 10.5573 101.356 9.95215C101.603 9.34342 101.955 8.87435 102.414 8.54492C102.876 8.21549 103.425 8.05078 104.063 8.05078C104.704 8.05078 105.253 8.21549 105.712 8.54492C106.17 8.87435 106.523 9.34342 106.77 9.95215C107.017 10.5573 107.14 11.2788 107.14 12.1167V12.1274C107.14 12.9618 107.017 13.6833 106.77 14.292C106.523 14.9007 106.17 15.3716 105.712 15.7046C105.253 16.034 104.704 16.1987 104.063 16.1987ZM104.063 14.915C104.371 14.915 104.63 14.804 104.841 14.582C105.056 14.36 105.219 14.0413 105.33 13.626C105.445 13.2106 105.502 12.7111 105.502 12.1274V12.1167C105.502 11.5295 105.445 11.0299 105.33 10.6182C105.219 10.2028 105.056 9.8859 104.841 9.66748C104.63 9.44548 104.371 9.33447 104.063 9.33447C103.758 9.33447 103.499 9.44548 103.284 9.66748C103.073 9.8859 102.91 10.2028 102.795 10.6182C102.684 11.0299 102.629 11.5295 102.629 12.1167V12.1274C102.629 12.7111 102.684 13.2106 102.795 13.626C102.91 14.0413 103.073 14.36 103.284 14.582C103.499 14.804 103.758 14.915 104.063 14.915Z" fill="black"/>
</svg>
