<svg width="350" height="150" viewBox="0 0 350 150" fill="none" xmlns="http://www.w3.org/2000/svg">
<rect width="350" height="150" fill="white"/>
<circle cx="157" cy="75" r="25" fill="#D72638"/>
<path d="M148.219 69.8331C148.219 69.9635 148.167 70.0885 148.075 70.1807C147.984 70.2729 147.859 70.3246 147.729 70.3246C147.599 70.3246 147.475 70.2729 147.383 70.1807C147.291 70.0885 147.24 69.9635 147.24 69.8331C147.239 68.8124 146.834 67.8338 146.115 67.112C145.397 66.3902 144.422 65.9842 143.405 65.983C142.497 65.984 141.626 66.3468 140.984 66.9918C140.341 67.6368 139.98 68.5114 139.979 69.4235C139.98 70.2271 140.298 70.9975 140.864 71.5657C141.43 72.1339 142.197 72.4535 142.998 72.4545C143.69 72.4537 144.353 72.1773 144.843 71.6859C145.332 71.1944 145.607 70.5281 145.608 69.8331C145.607 69.2467 145.375 68.6845 144.962 68.2699C144.549 67.8552 143.989 67.622 143.405 67.6214C142.93 67.6219 142.473 67.8119 142.137 68.1498C141.8 68.4877 141.611 68.9457 141.611 69.4235C141.611 69.7929 141.757 70.1471 142.017 70.4083C142.277 70.6694 142.63 70.8161 142.998 70.8161C143.257 70.8161 143.506 70.7126 143.69 70.5282C143.873 70.3439 143.976 70.0938 143.976 69.8331C143.976 69.681 143.916 69.5352 143.809 69.4277C143.702 69.3201 143.557 69.2597 143.405 69.2597C143.362 69.2598 143.321 69.277 143.29 69.3076C143.391 69.3557 143.472 69.4365 143.52 69.5369C143.569 69.6373 143.582 69.7512 143.557 69.86C143.532 69.9687 143.472 70.0659 143.385 70.1354C143.298 70.205 143.19 70.2428 143.079 70.2427C142.863 70.2427 142.655 70.1564 142.502 70.0028C142.349 69.8492 142.263 69.6408 142.263 69.4235C142.263 69.1194 142.384 68.8277 142.598 68.6126C142.812 68.3975 143.103 68.2767 143.405 68.2767C143.609 68.2767 143.811 68.317 143.999 68.3952C144.187 68.4734 144.358 68.588 144.501 68.7326C144.645 68.8771 144.76 69.0487 144.837 69.2375C144.915 69.4263 144.955 69.6287 144.955 69.8331C144.955 70.3544 144.748 70.8541 144.381 71.2227C144.014 71.5913 143.517 71.7986 142.998 71.7991C142.37 71.7984 141.769 71.5479 141.325 71.1025C140.882 70.6572 140.632 70.0534 140.632 69.4235C140.632 68.6851 140.925 67.9771 141.445 67.455C141.965 66.9328 142.67 66.6391 143.405 66.6383C144.249 66.6393 145.058 66.9762 145.654 67.5752C146.251 68.1741 146.586 68.9861 146.587 69.8331C146.586 70.7887 146.207 71.7049 145.535 72.3806C144.862 73.0563 143.949 73.4364 142.998 73.4375C141.938 73.4363 140.922 73.013 140.172 72.2605C139.423 71.508 139.001 70.4877 139 69.4235C139.001 68.2507 139.466 67.1264 140.292 66.2971C141.118 65.4678 142.237 65.0013 143.405 65C144.682 65.0014 145.905 65.5111 146.807 66.4171C147.71 67.3232 148.217 68.5517 148.219 69.8331Z" fill="black"/>
<path d="M169.625 69.8331C169.625 69.9635 169.573 70.0885 169.482 70.1807C169.39 70.2729 169.265 70.3246 169.136 70.3246C169.006 70.3246 168.881 70.2729 168.789 70.1807C168.698 70.0885 168.646 69.9635 168.646 69.8331C168.645 68.8124 168.24 67.8338 167.522 67.112C166.803 66.3902 165.828 65.9842 164.812 65.983C163.903 65.984 163.032 66.3468 162.39 66.9918C161.748 67.6368 161.386 68.5114 161.385 69.4235C161.386 70.2271 161.705 70.9975 162.27 71.5657C162.836 72.1339 163.603 72.4535 164.404 72.4545C165.096 72.4537 165.759 72.1773 166.249 71.6859C166.738 71.1944 167.014 70.5281 167.014 69.8331C167.014 69.2467 166.781 68.6845 166.369 68.2699C165.956 67.8552 165.396 67.622 164.812 67.6214C164.336 67.6219 163.88 67.8119 163.543 68.1498C163.207 68.4877 163.017 68.9457 163.017 69.4235C163.017 69.7929 163.163 70.1471 163.423 70.4083C163.683 70.6694 164.036 70.8161 164.404 70.8161C164.663 70.8161 164.912 70.7126 165.096 70.5282C165.28 70.3439 165.383 70.0938 165.383 69.8331C165.383 69.681 165.323 69.5352 165.215 69.4277C165.108 69.3201 164.963 69.2597 164.812 69.2597C164.769 69.2598 164.727 69.277 164.697 69.3076C164.797 69.3557 164.878 69.4365 164.926 69.5369C164.975 69.6373 164.988 69.7512 164.963 69.86C164.939 69.9687 164.878 70.0659 164.791 70.1354C164.704 70.205 164.596 70.2428 164.485 70.2427C164.269 70.2427 164.061 70.1564 163.908 70.0028C163.755 69.8492 163.67 69.6408 163.67 69.4235C163.67 69.1194 163.79 68.8277 164.004 68.6126C164.218 68.3975 164.509 68.2767 164.812 68.2767C165.015 68.2767 165.217 68.317 165.405 68.3952C165.593 68.4734 165.764 68.588 165.908 68.7326C166.052 68.8771 166.166 69.0487 166.244 69.2375C166.322 69.4263 166.362 69.6287 166.362 69.8331C166.361 70.3544 166.155 70.8541 165.788 71.2227C165.421 71.5913 164.923 71.7986 164.404 71.7991C163.777 71.7984 163.175 71.5479 162.732 71.1025C162.288 70.6572 162.039 70.0534 162.038 69.4235C162.039 68.6851 162.331 67.9771 162.851 67.455C163.371 66.9328 164.076 66.6391 164.812 66.6383C165.655 66.6393 166.464 66.9762 167.06 67.5752C167.657 68.1741 167.992 68.9861 167.993 69.8331C167.992 70.7887 167.614 71.7049 166.941 72.3806C166.268 73.0563 165.355 73.4364 164.404 73.4375C163.344 73.4363 162.328 73.013 161.578 72.2605C160.829 71.508 160.407 70.4877 160.406 69.4235C160.408 68.2507 160.872 67.1264 161.698 66.2971C162.524 65.4678 163.644 65.0013 164.812 65C166.088 65.0014 167.311 65.5111 168.214 66.4171C169.116 67.3232 169.624 68.5517 169.625 69.8331Z" fill="black"/>
<path d="M152.946 77.8954C153.453 77.6186 154.058 77.5655 154.297 77.5736C154.536 77.5655 155.141 77.6186 155.648 77.8954C155.909 78.0215 156.55 78.198 157.027 77.8954C157.504 77.5929 157.53 77.0076 157.484 76.7528C157.394 76.2727 156.63 75.3125 154.297 75.3125C151.964 75.3125 151.2 76.2727 151.11 76.7528C151.063 77.0076 151.089 77.5929 151.567 77.8954C152.044 78.198 152.685 78.0215 152.946 77.8954Z" fill="#396337" stroke="black" stroke-width="0.25" stroke-linecap="round"/>
<circle cx="75" cy="75" r="25" fill="#C5C5C7"/>
<circle cx="75" cy="25" r="25" fill="#C5C5C7"/>
<circle cx="275" cy="100" r="25" fill="#C5C5C7"/>
<circle cx="275" cy="50" r="25" fill="#C5C5C7"/>
<circle cx="115" cy="100" r="25" fill="#C5C5C7"/>
<circle cx="115" cy="50" r="25" fill="#C5C5C7"/>
<circle cx="195" cy="98" r="25" fill="#C5C5C7"/>
<circle cx="195" cy="47" r="25" fill="#C5C5C7"/>
<circle cx="35" cy="100" r="25" fill="#C5C5C7"/>
<circle cx="35" cy="50" r="25" fill="#C5C5C7"/>
<circle cx="315" cy="125" r="25" fill="#C5C5C7"/>
<circle cx="315" cy="25" r="25" fill="#C5C5C7"/>
<circle cx="157" cy="125" r="25" fill="#C5C5C7"/>
<circle cx="157" cy="25" r="25" fill="#C5C5C7"/>
<circle cx="238" cy="125" r="25" fill="#C5C5C7"/>
<circle cx="238" cy="25" r="25" fill="#C5C5C7"/>
<circle cx="75" cy="125" r="25" fill="#C5C5C7"/>
<circle cx="238" cy="75" r="25" fill="#C5C5C7"/>
<circle cx="315" cy="75" r="25" fill="#C5C5C7"/>
</svg>
