<svg width="350" height="150" viewBox="0 0 350 150" fill="none" xmlns="http://www.w3.org/2000/svg">
<rect width="350" height="150" fill="white"/>
<circle cx="175" cy="75" r="25" fill="#04DE70"/>
<path d="M176.062 77.5938C177.281 79.0625 181.031 79.9062 183.328 77.5938" stroke="black" stroke-width="0.34375" stroke-linecap="round"/>
<path d="M175.438 79.1875C176.077 78.6528 176.445 77.0077 175.437 76" stroke="black" stroke-width="0.34375" stroke-linecap="round"/>
<path d="M183.969 76C183.329 76.5347 182.962 78.1798 183.969 79.1875" stroke="black" stroke-width="0.34375" stroke-linecap="round"/>
<ellipse cx="170.109" cy="71.3438" rx="1.17188" ry="1.34375" fill="black"/>
<ellipse cx="189.234" cy="71.3438" rx="1.17188" ry="1.34375" fill="black"/>
<g opacity="0.69" filter="url(#filter0_f_596_2926)">
<ellipse cx="166.969" cy="75.1562" rx="1.96875" ry="1.3125" fill="#548B51"/>
</g>
<g opacity="0.69" filter="url(#filter1_f_596_2926)">
<ellipse cx="192.406" cy="75.1562" rx="1.96875" ry="1.3125" fill="#548B51"/>
</g>
<circle cx="75" cy="115" r="25" fill="#C5C5C7"/>
<circle cx="75" cy="35" r="25" fill="#C5C5C7"/>
<circle cx="275" cy="115" r="25" fill="#C5C5C7"/>
<circle cx="275" cy="35" r="25" fill="#C5C5C7"/>
<defs>
<filter id="filter0_f_596_2926" x="164.375" y="73.2188" width="5.1875" height="3.875" filterUnits="userSpaceOnUse" color-interpolation-filters="sRGB">
<feFlood flood-opacity="0" result="BackgroundImageFix"/>
<feBlend mode="normal" in="SourceGraphic" in2="BackgroundImageFix" result="shape"/>
<feGaussianBlur stdDeviation="0.3125" result="effect1_foregroundBlur_596_2926"/>
</filter>
<filter id="filter1_f_596_2926" x="189.812" y="73.2188" width="5.1875" height="3.875" filterUnits="userSpaceOnUse" color-interpolation-filters="sRGB">
<feFlood flood-opacity="0" result="BackgroundImageFix"/>
<feBlend mode="normal" in="SourceGraphic" in2="BackgroundImageFix" result="shape"/>
<feGaussianBlur stdDeviation="0.3125" result="effect1_foregroundBlur_596_2926"/>
</filter>
</defs>
</svg>
