<svg width="128" height="64" viewBox="0 0 128 64" fill="none" xmlns="http://www.w3.org/2000/svg">
<path d="M47.72 42.26H50.38V55.72H47.72V42.26ZM49.64 47.54H52.84V49.74H49.64V47.54ZM38.44 58.32H51.04V60.46H38.44V58.32ZM38.44 54.32H41.12V59.28H38.44V54.32ZM40.96 43.44C41.9067 43.44 42.76 43.64 43.52 44.04C44.28 44.44 44.88 44.9933 45.32 45.7C45.7733 46.4067 46 47.22 46 48.14C46 49.0467 45.7733 49.86 45.32 50.58C44.88 51.2867 44.28 51.8467 43.52 52.26C42.76 52.66 41.9067 52.86 40.96 52.86C40.0133 52.86 39.16 52.66 38.4 52.26C37.64 51.8467 37.04 51.2867 36.6 50.58C36.16 49.86 35.94 49.0467 35.94 48.14C35.94 47.22 36.16 46.4067 36.6 45.7C37.04 44.9933 37.64 44.44 38.4 44.04C39.16 43.64 40.0133 43.44 40.96 43.44ZM40.96 45.74C40.5067 45.74 40.0933 45.84 39.72 46.04C39.36 46.2267 39.0733 46.5 38.86 46.86C38.6467 47.2067 38.54 47.6333 38.54 48.14C38.54 48.6467 38.6467 49.08 38.86 49.44C39.0733 49.7867 39.36 50.06 39.72 50.26C40.0933 50.4467 40.5067 50.54 40.96 50.54C41.4267 50.54 41.84 50.4467 42.2 50.26C42.5733 50.06 42.8667 49.7867 43.08 49.44C43.2933 49.08 43.4 48.6467 43.4 48.14C43.4 47.6333 43.2933 47.2067 43.08 46.86C42.8667 46.5 42.5733 46.2267 42.2 46.04C41.84 45.84 41.4267 45.74 40.96 45.74ZM65.338 51.92H68.018V54.84H65.338V51.92ZM58.318 50.84H75.078V52.96H58.318V50.84ZM60.458 42.64H63.078V44.22H70.318V42.64H72.958V49.66H60.458V42.64ZM63.078 46.2V47.58H70.318V46.2H63.078ZM60.278 54.4H73.078V60.58H60.278V54.4ZM70.478 56.5H62.878V58.48H70.478V56.5ZM85.2664 46.56H90.2464V48.7H85.2664V46.56ZM85.2664 51.58H90.2464V53.72H85.2664V51.58ZM89.1664 42.22H91.8264V60.8H89.1664V42.22ZM76.9664 43.68H79.6064V48.18H83.2464V43.68H85.8664V56.44H76.9664V43.68ZM79.6064 50.24V54.32H83.2464V50.24H79.6064Z" fill="#141414"/>
<path d="M128 64C128 47.0261 121.257 30.7475 109.255 18.7452C97.2525 6.74284 80.9739 1.28149e-06 64 0C47.0261 -1.28149e-06 30.7475 6.74283 18.7452 18.7452C6.74284 30.7475 2.56298e-06 47.0261 0 64L19.9098 64C19.9098 52.3065 24.555 41.092 32.8235 32.8235C41.092 24.555 52.3065 19.9098 64 19.9098C75.6935 19.9098 86.908 24.555 95.1765 32.8235C103.445 41.092 108.09 52.3065 108.09 64H128Z" fill="#D9D9D9"/>
<path d="M0 64C9.39525e-07 53.2531 2.70628 42.6792 7.86921 33.2537C13.0321 23.8282 20.4855 15.8546 29.5417 10.0683L40.2734 26.8649C34.0377 30.8491 28.9056 36.3394 25.3507 42.8294C21.7957 49.3194 19.9323 56.6001 19.9323 64H0Z" fill="#04DE70"/>
</svg>
