<svg width="128" height="64" viewBox="0 0 128 64" fill="none" xmlns="http://www.w3.org/2000/svg">
<path d="M36.8 49.48H38.24C39.4533 49.48 40.5 49.4733 41.38 49.46C42.26 49.4333 43.06 49.3867 43.78 49.32C44.5 49.2533 45.22 49.1533 45.94 49.02L46.18 51.04C45.4467 51.1867 44.7067 51.3 43.96 51.38C43.2133 51.4467 42.38 51.4933 41.46 51.52C40.5533 51.5333 39.48 51.54 38.24 51.54H36.8V49.48ZM36.8 43.16H45.12V45.2H39.44V50.8H36.8V43.16ZM44.26 46.1H49.32V48.08H44.26V46.1ZM48.64 42.24H51.3V51.78H48.64V42.24ZM39.06 52.54H51.3V57.46H41.72V59.82H39.1V55.56H48.68V54.6H39.06V52.54ZM39.1 58.5H51.84V60.58H39.1V58.5ZM65.338 51.92H68.018V54.84H65.338V51.92ZM58.318 50.84H75.078V52.96H58.318V50.84ZM60.458 42.64H63.078V44.22H70.318V42.64H72.958V49.66H60.458V42.64ZM63.078 46.2V47.58H70.318V46.2H63.078ZM60.278 54.4H73.078V60.58H60.278V54.4ZM70.478 56.5H62.878V58.48H70.478V56.5ZM85.2664 46.56H90.2464V48.7H85.2664V46.56ZM85.2664 51.58H90.2464V53.72H85.2664V51.58ZM89.1664 42.22H91.8264V60.8H89.1664V42.22ZM76.9664 43.68H79.6064V48.18H83.2464V43.68H85.8664V56.44H76.9664V43.68ZM79.6064 50.24V54.32H83.2464V50.24H79.6064Z" fill="#141414"/>
<path d="M128 64C128 47.0261 121.257 30.7475 109.255 18.7452C97.2525 6.74284 80.9739 1.28149e-06 64 0C47.0261 -1.28149e-06 30.7475 6.74283 18.7452 18.7452C6.74284 30.7475 2.56298e-06 47.0261 0 64L19.9098 64C19.9098 52.3065 24.555 41.092 32.8235 32.8235C41.092 24.555 52.3065 19.9098 64 19.9098C75.6935 19.9098 86.908 24.555 95.1765 32.8235C103.445 41.092 108.09 52.3065 108.09 64H128Z" fill="#D9D9D9"/>
<path d="M0 64C1.02908e-06 52.2287 3.24645 40.6854 9.38228 30.6398C15.5181 20.5941 24.3056 12.4353 34.7783 7.06064C45.2509 1.68599 57.003 -0.696258 68.742 0.175916C80.4809 1.04809 91.7519 5.14089 101.315 12.0042L89.6938 28.1978C83.1088 23.4721 75.3481 20.6539 67.2651 20.0534C59.1822 19.4528 51.0902 21.0932 43.8791 24.7939C36.6681 28.4947 30.6174 34.1125 26.3925 41.0295C22.1676 47.9465 19.9323 55.8948 19.9323 64H0Z" fill="#FFDC00"/>
</svg>
