<svg width="128" height="64" viewBox="0 0 128 64" fill="none" xmlns="http://www.w3.org/2000/svg">
<path d="M53.82 51.92H56.5V54.84H53.82V51.92ZM46.8 50.84H63.56V52.96H46.8V50.84ZM48.94 42.64H51.56V44.22H58.8V42.64H61.44V49.66H48.94V42.64ZM51.56 46.2V47.58H58.8V46.2H51.56ZM48.76 54.4H61.56V60.58H48.76V54.4ZM58.96 56.5H51.36V58.48H58.96V56.5ZM73.7484 46.56H78.7284V48.7H73.7484V46.56ZM73.7484 51.58H78.7284V53.72H73.7484V51.58ZM77.6484 42.22H80.3084V60.8H77.6484V42.22ZM65.4484 43.68H68.0884V48.18H71.7284V43.68H74.3484V56.44H65.4484V43.68ZM68.0884 50.24V54.32H71.7284V50.24H68.0884Z" fill="#141414"/>
<path d="M128 64C128 47.0261 121.257 30.7475 109.255 18.7452C97.2525 6.74284 80.9739 1.28149e-06 64 0C47.0261 -1.28149e-06 30.7475 6.74283 18.7452 18.7452C6.74284 30.7475 2.56298e-06 47.0261 0 64L19.9098 64C19.9098 52.3065 24.555 41.092 32.8235 32.8235C41.092 24.555 52.3065 19.9098 64 19.9098C75.6935 19.9098 86.908 24.555 95.1765 32.8235C103.445 41.092 108.09 52.3065 108.09 64H128Z" fill="#D9D9D9"/>
<path d="M0 64C1.4839e-06 47.0261 6.74284 30.7475 18.7452 18.7452C30.7475 6.74284 47.0261 1.82103e-06 64 0C80.9738 -1.82103e-06 97.2525 6.74283 109.255 18.7452C121.257 30.7475 128 47.0261 128 64L108.068 64C108.068 52.3125 103.425 41.1037 95.1606 32.8394C86.8963 24.5751 75.6875 19.9322 64 19.9323C52.3125 19.9323 41.1037 24.5751 32.8394 32.8394C24.5751 41.1037 19.9323 52.3125 19.9323 64H0Z" fill="#D72638"/>
</svg>
